<svg xmlns="http://www.w3.org/2000/svg" width="16" height="16" viewBox="0 0 16 16">
  <rect width="16" height="16" fill="none"/>
  <g opacity="0.9">
    <rect x="0" y="0" width="1" height="1" fill="#C2FE0B" fill-opacity="0.06"/>
    <rect x="8" y="0" width="1" height="1" fill="#01FFFF" fill-opacity="0.05"/>
    <rect x="4" y="1" width="1" height="1" fill="#FFFFFF" fill-opacity="0.035"/>
    <rect x="12" y="1" width="1" height="1" fill="#C2FE0B" fill-opacity="0.045"/>
    <rect x="2" y="2" width="1" height="1" fill="#01FFFF" fill-opacity="0.035"/>
    <rect x="10" y="2" width="1" height="1" fill="#FFFFFF" fill-opacity="0.04"/>
    <rect x="6" y="3" width="1" height="1" fill="#C2FE0B" fill-opacity="0.065"/>
    <rect x="14" y="3" width="1" height="1" fill="#01FFFF" fill-opacity="0.035"/>
    <rect x="0" y="4" width="1" height="1" fill="#FFFFFF" fill-opacity="0.035"/>
    <rect x="8" y="4" width="1" height="1" fill="#C2FE0B" fill-opacity="0.045"/>
    <rect x="4" y="5" width="1" height="1" fill="#01FFFF" fill-opacity="0.05"/>
    <rect x="12" y="5" width="1" height="1" fill="#FFFFFF" fill-opacity="0.035"/>
    <rect x="2" y="6" width="1" height="1" fill="#C2FE0B" fill-opacity="0.035"/>
    <rect x="10" y="6" width="1" height="1" fill="#FF0D1A" fill-opacity="0.04"/>
    <rect x="6" y="7" width="1" height="1" fill="#01FFFF" fill-opacity="0.06"/>
    <rect x="14" y="7" width="1" height="1" fill="#C2FE0B" fill-opacity="0.035"/>
    <rect x="1" y="8" width="1" height="1" fill="#C2FE0B" fill-opacity="0.05"/>
    <rect x="9" y="8" width="1" height="1" fill="#FFFFFF" fill-opacity="0.03"/>
    <rect x="5" y="9" width="1" height="1" fill="#01FFFF" fill-opacity="0.04"/>
    <rect x="13" y="9" width="1" height="1" fill="#C2FE0B" fill-opacity="0.06"/>
    <rect x="3" y="10" width="1" height="1" fill="#FF0D1A" fill-opacity="0.035"/>
    <rect x="11" y="10" width="1" height="1" fill="#FFFFFF" fill-opacity="0.04"/>
    <rect x="7" y="11" width="1" height="1" fill="#C2FE0B" fill-opacity="0.045"/>
    <rect x="15" y="11" width="1" height="1" fill="#01FFFF" fill-opacity="0.04"/>
    <rect x="1" y="12" width="1" height="1" fill="#FFFFFF" fill-opacity="0.03"/>
    <rect x="9" y="12" width="1" height="1" fill="#C2FE0B" fill-opacity="0.05"/>
    <rect x="5" y="13" width="1" height="1" fill="#01FFFF" fill-opacity="0.045"/>
    <rect x="13" y="13" width="1" height="1" fill="#FFFFFF" fill-opacity="0.035"/>
    <rect x="3" y="14" width="1" height="1" fill="#C2FE0B" fill-opacity="0.035"/>
    <rect x="11" y="14" width="1" height="1" fill="#FF0D1A" fill-opacity="0.035"/>
    <rect x="7" y="15" width="1" height="1" fill="#01FFFF" fill-opacity="0.055"/>
    <rect x="15" y="15" width="1" height="1" fill="#C2FE0B" fill-opacity="0.04"/>
  </g>
</svg>
