<svg xmlns="http://www.w3.org/2000/svg" width="360" height="360" viewBox="0 0 360 360">
  <g fill="none">
    <path d="M18 32H46M32 18V46" stroke="#C2FE0B" stroke-opacity="0.22" stroke-width="0.75"/>
    <circle cx="32" cy="32" r="5" stroke="#C2FE0B" stroke-opacity="0.16" stroke-width="0.75"/>
    <circle cx="32" cy="32" r="10" stroke="#01FFFF" stroke-opacity="0.08" stroke-width="0.5"/>
    <path d="M314 328H342M328 314V342" stroke="#C2FE0B" stroke-opacity="0.2" stroke-width="0.75"/>
    <rect x="323" y="323" width="10" height="10" stroke="#C2FE0B" stroke-opacity="0.12" stroke-width="0.75" transform="rotate(45 328 328)"/>
    <path d="M296 62H324M310 48V76" stroke="#01FFFF" stroke-opacity="0.13" stroke-width="0.5"/>
    <circle cx="310" cy="62" r="7" stroke="#FFFFFF" stroke-opacity="0.06" stroke-width="0.5"/>
  </g>
  <g opacity="0.7">
    <rect x="160" y="164" width="5" height="5" fill="#C2FE0B" fill-opacity="0.09"/>
    <rect x="170" y="164" width="5" height="5" fill="#C2FE0B" fill-opacity="0.09"/>
    <rect x="180" y="164" width="5" height="5" fill="#01FFFF" fill-opacity="0.065"/>
    <rect x="160" y="174" width="5" height="5" fill="#01FFFF" fill-opacity="0.065"/>
    <rect x="175" y="174" width="5" height="5" fill="#C2FE0B" fill-opacity="0.09"/>
    <rect x="185" y="174" width="5" height="5" fill="#FFFFFF" fill-opacity="0.06"/>
    <rect x="165" y="184" width="5" height="5" fill="#FFFFFF" fill-opacity="0.055"/>
    <rect x="175" y="189" width="5" height="5" fill="#C2FE0B" fill-opacity="0.075"/>
    <rect x="185" y="189" width="5" height="5" fill="#FF0D1A" fill-opacity="0.055"/>
  </g>
  <g stroke="#C2FE0B" stroke-opacity="0.085">
    <path d="M70 248V286" stroke-width="1.5"/>
    <path d="M74 248V286" stroke-width="0.75"/>
    <path d="M78 248V286" stroke-width="1"/>
    <path d="M84 248V286" stroke-width="0.75"/>
    <path d="M89 248V286" stroke-width="2"/>
    <path d="M96 248V286" stroke-width="0.75"/>
    <path d="M100 248V286" stroke-width="1.25"/>
    <path d="M107 248V286" stroke-width="0.75"/>
    <path d="M112 248V286" stroke-width="1.5"/>
  </g>
</svg>
