<svg xmlns="http://www.w3.org/2000/svg" width="300" height="300" viewBox="0 0 300 300">
  <!-- Registration crosshairs — Marathon print artifacts -->
  <line x1="15" y1="25" x2="35" y2="25" stroke="rgba(194,254,11,0.15)" stroke-width="0.5"/>
  <line x1="25" y1="15" x2="25" y2="35" stroke="rgba(194,254,11,0.15)" stroke-width="0.5"/>
  <circle cx="25" cy="25" r="4" fill="none" stroke="rgba(194,254,11,0.1)" stroke-width="0.5"/>
  <circle cx="25" cy="25" r="8" fill="none" stroke="rgba(1,255,255,0.06)" stroke-width="0.3"/>

  <!-- Fiducial marker — Apollo Mission style -->
  <line x1="265" y1="275" x2="285" y2="275" stroke="rgba(194,254,11,0.15)" stroke-width="0.5"/>
  <line x1="275" y1="265" x2="275" y2="285" stroke="rgba(194,254,11,0.15)" stroke-width="0.5"/>
  <rect x="271" y="271" width="8" height="8" fill="none" stroke="rgba(194,254,11,0.08)" stroke-width="0.5"/>

  <!-- QR code fragment — partial digital artifact -->
  <rect x="140" y="140" width="4" height="4" fill="rgba(194,254,11,0.06)"/>
  <rect x="148" y="140" width="4" height="4" fill="rgba(194,254,11,0.06)"/>
  <rect x="140" y="148" width="4" height="4" fill="rgba(1,255,255,0.04)"/>
  <rect x="152" y="148" width="4" height="4" fill="rgba(194,254,11,0.06)"/>
  <rect x="144" y="152" width="4" height="4" fill="rgba(255,255,255,0.04)"/>
  <rect x="148" y="156" width="4" height="4" fill="rgba(194,254,11,0.04)"/>

  <!-- Barcode fragment -->
  <line x1="60" y1="140" x2="60" y2="160" stroke="rgba(194,254,11,0.08)" stroke-width="1"/>
  <line x1="63" y1="140" x2="63" y2="160" stroke="rgba(194,254,11,0.08)" stroke-width="0.5"/>
  <line x1="65" y1="140" x2="65" y2="160" stroke="rgba(194,254,11,0.08)" stroke-width="1"/>
  <line x1="68" y1="140" x2="68" y2="160" stroke="rgba(194,254,11,0.08)" stroke-width="0.5"/>
  <line x1="71" y1="140" x2="71" y2="160" stroke="rgba(194,254,11,0.08)" stroke-width="1.5"/>
  <line x1="74" y1="140" x2="74" y2="160" stroke="rgba(194,254,11,0.08)" stroke-width="0.5"/>
  <line x1="76" y1="140" x2="76" y2="160" stroke="rgba(194,254,11,0.08)" stroke-width="1"/>
</svg>
