<svg xmlns="http://www.w3.org/2000/svg" width="750" height="116" viewBox="0 0 750 116">
<rect width="750" height="116" fill="none"/>
<g fill="#FFFFFF" fill-opacity="0.16">
<rect x="21" y="0" width="14" height="14"/>
<rect x="21" y="51" width="14" height="14"/>
<rect x="133" y="0" width="14" height="14"/>
<rect x="133" y="51" width="14" height="14"/>
<rect x="194" y="0" width="14" height="14"/>
<rect x="211" y="51" width="14" height="14"/>
<rect x="245" y="102" width="14" height="14"/>
<rect x="289" y="34" width="14" height="14"/>
<rect x="306" y="102" width="14" height="14"/>
<rect x="384" y="17" width="14" height="14"/>
<rect x="384" y="102" width="14" height="14"/>
<rect x="479" y="34" width="14" height="14"/>
<rect x="479" y="102" width="14" height="14"/>
<rect x="625" y="0" width="14" height="14"/>
<rect x="625" y="51" width="14" height="14"/>
<rect x="686" y="0" width="14" height="14"/>
<rect x="703" y="51" width="14" height="14"/>
<rect x="737" y="102" width="14" height="14"/>
</g>
<g fill="#01FFFF" fill-opacity="0.28">
<rect x="54" y="3" width="14" height="14"/>
<rect x="3" y="105" width="14" height="14"/>
<rect x="132" y="54" width="14" height="14"/>
<rect x="244" y="3" width="14" height="14"/>
<rect x="210" y="105" width="14" height="14"/>
<rect x="288" y="54" width="14" height="14"/>
<rect x="400" y="3" width="14" height="14"/>
<rect x="451" y="88" width="14" height="14"/>
<rect x="478" y="54" width="14" height="14"/>
<rect x="573" y="3" width="14" height="14"/>
<rect x="624" y="54" width="14" height="14"/>
<rect x="736" y="3" width="14" height="14"/>
<rect x="702" y="105" width="14" height="14"/>
</g>
<g fill="#EA027E">
<rect x="0" y="0" width="14" height="14"/>
<rect x="17" y="0" width="14" height="14"/>
<rect x="34" y="0" width="14" height="14"/>
<rect x="51" y="0" width="14" height="14"/>
<rect x="0" y="17" width="14" height="14"/>
<rect x="68" y="17" width="14" height="14"/>
<rect x="0" y="34" width="14" height="14"/>
<rect x="68" y="34" width="14" height="14"/>
<rect x="0" y="51" width="14" height="14"/>
<rect x="17" y="51" width="14" height="14"/>
<rect x="34" y="51" width="14" height="14"/>
<rect x="51" y="51" width="14" height="14"/>
<rect x="0" y="68" width="14" height="14"/>
<rect x="0" y="85" width="14" height="14"/>
<rect x="0" y="102" width="14" height="14"/>
<rect x="95" y="0" width="14" height="14"/>
<rect x="112" y="0" width="14" height="14"/>
<rect x="129" y="0" width="14" height="14"/>
<rect x="146" y="0" width="14" height="14"/>
<rect x="95" y="17" width="14" height="14"/>
<rect x="163" y="17" width="14" height="14"/>
<rect x="95" y="34" width="14" height="14"/>
<rect x="163" y="34" width="14" height="14"/>
<rect x="95" y="51" width="14" height="14"/>
<rect x="112" y="51" width="14" height="14"/>
<rect x="129" y="51" width="14" height="14"/>
<rect x="146" y="51" width="14" height="14"/>
<rect x="95" y="68" width="14" height="14"/>
<rect x="129" y="68" width="14" height="14"/>
<rect x="95" y="85" width="14" height="14"/>
<rect x="146" y="85" width="14" height="14"/>
<rect x="95" y="102" width="14" height="14"/>
<rect x="163" y="102" width="14" height="14"/>
<rect x="190" y="0" width="14" height="14"/>
<rect x="207" y="0" width="14" height="14"/>
<rect x="224" y="0" width="14" height="14"/>
<rect x="241" y="0" width="14" height="14"/>
<rect x="258" y="0" width="14" height="14"/>
<rect x="190" y="17" width="14" height="14"/>
<rect x="190" y="34" width="14" height="14"/>
<rect x="190" y="51" width="14" height="14"/>
<rect x="207" y="51" width="14" height="14"/>
<rect x="224" y="51" width="14" height="14"/>
<rect x="241" y="51" width="14" height="14"/>
<rect x="190" y="68" width="14" height="14"/>
<rect x="190" y="85" width="14" height="14"/>
<rect x="190" y="102" width="14" height="14"/>
<rect x="207" y="102" width="14" height="14"/>
<rect x="224" y="102" width="14" height="14"/>
<rect x="241" y="102" width="14" height="14"/>
<rect x="258" y="102" width="14" height="14"/>
<rect x="285" y="0" width="14" height="14"/>
<rect x="302" y="0" width="14" height="14"/>
<rect x="319" y="0" width="14" height="14"/>
<rect x="336" y="0" width="14" height="14"/>
<rect x="353" y="0" width="14" height="14"/>
<rect x="285" y="17" width="14" height="14"/>
<rect x="285" y="34" width="14" height="14"/>
<rect x="285" y="51" width="14" height="14"/>
<rect x="302" y="51" width="14" height="14"/>
<rect x="319" y="51" width="14" height="14"/>
<rect x="336" y="51" width="14" height="14"/>
<rect x="353" y="68" width="14" height="14"/>
<rect x="353" y="85" width="14" height="14"/>
<rect x="285" y="102" width="14" height="14"/>
<rect x="302" y="102" width="14" height="14"/>
<rect x="319" y="102" width="14" height="14"/>
<rect x="336" y="102" width="14" height="14"/>
<rect x="380" y="0" width="14" height="14"/>
<rect x="397" y="0" width="14" height="14"/>
<rect x="414" y="0" width="14" height="14"/>
<rect x="431" y="0" width="14" height="14"/>
<rect x="448" y="0" width="14" height="14"/>
<rect x="380" y="17" width="14" height="14"/>
<rect x="380" y="34" width="14" height="14"/>
<rect x="380" y="51" width="14" height="14"/>
<rect x="397" y="51" width="14" height="14"/>
<rect x="414" y="51" width="14" height="14"/>
<rect x="431" y="51" width="14" height="14"/>
<rect x="448" y="68" width="14" height="14"/>
<rect x="448" y="85" width="14" height="14"/>
<rect x="380" y="102" width="14" height="14"/>
<rect x="397" y="102" width="14" height="14"/>
<rect x="414" y="102" width="14" height="14"/>
<rect x="431" y="102" width="14" height="14"/>
<rect x="475" y="0" width="14" height="14"/>
<rect x="543" y="0" width="14" height="14"/>
<rect x="475" y="17" width="14" height="14"/>
<rect x="543" y="17" width="14" height="14"/>
<rect x="475" y="34" width="14" height="14"/>
<rect x="543" y="34" width="14" height="14"/>
<rect x="475" y="51" width="14" height="14"/>
<rect x="543" y="51" width="14" height="14"/>
<rect x="475" y="68" width="14" height="14"/>
<rect x="543" y="68" width="14" height="14"/>
<rect x="475" y="85" width="14" height="14"/>
<rect x="543" y="85" width="14" height="14"/>
<rect x="475" y="102" width="14" height="14"/>
<rect x="492" y="102" width="14" height="14"/>
<rect x="509" y="102" width="14" height="14"/>
<rect x="526" y="102" width="14" height="14"/>
<rect x="543" y="102" width="14" height="14"/>
<rect x="570" y="0" width="14" height="14"/>
<rect x="587" y="0" width="14" height="14"/>
<rect x="604" y="0" width="14" height="14"/>
<rect x="621" y="0" width="14" height="14"/>
<rect x="570" y="17" width="14" height="14"/>
<rect x="638" y="17" width="14" height="14"/>
<rect x="570" y="34" width="14" height="14"/>
<rect x="638" y="34" width="14" height="14"/>
<rect x="570" y="51" width="14" height="14"/>
<rect x="587" y="51" width="14" height="14"/>
<rect x="604" y="51" width="14" height="14"/>
<rect x="621" y="51" width="14" height="14"/>
<rect x="570" y="68" width="14" height="14"/>
<rect x="604" y="68" width="14" height="14"/>
<rect x="570" y="85" width="14" height="14"/>
<rect x="621" y="85" width="14" height="14"/>
<rect x="570" y="102" width="14" height="14"/>
<rect x="638" y="102" width="14" height="14"/>
<rect x="665" y="0" width="14" height="14"/>
<rect x="682" y="0" width="14" height="14"/>
<rect x="699" y="0" width="14" height="14"/>
<rect x="716" y="0" width="14" height="14"/>
<rect x="733" y="0" width="14" height="14"/>
<rect x="665" y="17" width="14" height="14"/>
<rect x="665" y="34" width="14" height="14"/>
<rect x="665" y="51" width="14" height="14"/>
<rect x="682" y="51" width="14" height="14"/>
<rect x="699" y="51" width="14" height="14"/>
<rect x="716" y="51" width="14" height="14"/>
<rect x="665" y="68" width="14" height="14"/>
<rect x="665" y="85" width="14" height="14"/>
<rect x="665" y="102" width="14" height="14"/>
<rect x="682" y="102" width="14" height="14"/>
<rect x="699" y="102" width="14" height="14"/>
<rect x="716" y="102" width="14" height="14"/>
<rect x="733" y="102" width="14" height="14"/>
</g>
<path d="M0 115H750" stroke="#EA027E" stroke-opacity="0.45"/>
</svg>
