<svg xmlns="http://www.w3.org/2000/svg" width="470" height="70" viewBox="0 0 470 70">
<rect width="470" height="70" fill="none"/>
<g transform="translate(0 0)" fill="#01FFFF" fill-opacity="0.42">
<rect x="3" y="2" width="8" height="8"/>
<rect x="23" y="12" width="8" height="8"/>
<rect x="23" y="62" width="8" height="8"/>
<rect x="83" y="22" width="8" height="8"/>
<rect x="123" y="2" width="8" height="8"/>
<rect x="163" y="12" width="8" height="8"/>
<rect x="143" y="32" width="8" height="8"/>
<rect x="153" y="52" width="8" height="8"/>
<rect x="203" y="2" width="8" height="8"/>
<rect x="223" y="22" width="8" height="8"/>
<rect x="183" y="42" width="8" height="8"/>
<rect x="263" y="2" width="8" height="8"/>
<rect x="283" y="22" width="8" height="8"/>
<rect x="243" y="42" width="8" height="8"/>
<rect x="283" y="62" width="8" height="8"/>
<rect x="343" y="2" width="8" height="8"/>
<rect x="323" y="32" width="8" height="8"/>
<rect x="313" y="62" width="8" height="8"/>
<rect x="363" y="12" width="8" height="8"/>
<rect x="373" y="32" width="8" height="8"/>
<rect x="403" y="42" width="8" height="8"/>
<rect x="423" y="2" width="8" height="8"/>
<rect x="463" y="12" width="8" height="8"/>
<rect x="443" y="32" width="8" height="8"/>
<rect x="453" y="52" width="8" height="8"/>
</g>
<g transform="translate(0 0)" fill="#FF0D1A" fill-opacity="0.32">
<rect x="18" y="1" width="8" height="8"/>
<rect x="18" y="51" width="8" height="8"/>
<rect x="78" y="31" width="8" height="8"/>
<rect x="148" y="1" width="8" height="8"/>
<rect x="138" y="31" width="8" height="8"/>
<rect x="158" y="61" width="8" height="8"/>
<rect x="178" y="21" width="8" height="8"/>
<rect x="178" y="51" width="8" height="8"/>
<rect x="278" y="11" width="8" height="8"/>
<rect x="238" y="41" width="8" height="8"/>
<rect x="308" y="1" width="8" height="8"/>
<rect x="308" y="31" width="8" height="8"/>
<rect x="318" y="61" width="8" height="8"/>
<rect x="398" y="21" width="8" height="8"/>
<rect x="398" y="41" width="8" height="8"/>
<rect x="438" y="1" width="8" height="8"/>
<rect x="428" y="31" width="8" height="8"/>
<rect x="418" y="61" width="8" height="8"/>
</g>
<g fill="#C2FE0B">
<rect x="0" y="0" width="8" height="8"/>
<rect x="10" y="0" width="8" height="8"/>
<rect x="20" y="0" width="8" height="8"/>
<rect x="30" y="0" width="8" height="8"/>
<rect x="40" y="0" width="8" height="8"/>
<rect x="20" y="10" width="8" height="8"/>
<rect x="20" y="20" width="8" height="8"/>
<rect x="20" y="30" width="8" height="8"/>
<rect x="20" y="40" width="8" height="8"/>
<rect x="20" y="50" width="8" height="8"/>
<rect x="20" y="60" width="8" height="8"/>
<rect x="60" y="0" width="8" height="8"/>
<rect x="100" y="0" width="8" height="8"/>
<rect x="70" y="10" width="8" height="8"/>
<rect x="90" y="10" width="8" height="8"/>
<rect x="80" y="20" width="8" height="8"/>
<rect x="80" y="30" width="8" height="8"/>
<rect x="80" y="40" width="8" height="8"/>
<rect x="80" y="50" width="8" height="8"/>
<rect x="80" y="60" width="8" height="8"/>
<rect x="120" y="0" width="8" height="8"/>
<rect x="130" y="0" width="8" height="8"/>
<rect x="140" y="0" width="8" height="8"/>
<rect x="150" y="0" width="8" height="8"/>
<rect x="120" y="10" width="8" height="8"/>
<rect x="160" y="10" width="8" height="8"/>
<rect x="120" y="20" width="8" height="8"/>
<rect x="160" y="20" width="8" height="8"/>
<rect x="120" y="30" width="8" height="8"/>
<rect x="130" y="30" width="8" height="8"/>
<rect x="140" y="30" width="8" height="8"/>
<rect x="150" y="30" width="8" height="8"/>
<rect x="120" y="40" width="8" height="8"/>
<rect x="140" y="40" width="8" height="8"/>
<rect x="120" y="50" width="8" height="8"/>
<rect x="150" y="50" width="8" height="8"/>
<rect x="120" y="60" width="8" height="8"/>
<rect x="160" y="60" width="8" height="8"/>
<rect x="180" y="0" width="8" height="8"/>
<rect x="190" y="0" width="8" height="8"/>
<rect x="200" y="0" width="8" height="8"/>
<rect x="210" y="0" width="8" height="8"/>
<rect x="180" y="10" width="8" height="8"/>
<rect x="220" y="10" width="8" height="8"/>
<rect x="180" y="20" width="8" height="8"/>
<rect x="220" y="20" width="8" height="8"/>
<rect x="180" y="30" width="8" height="8"/>
<rect x="190" y="30" width="8" height="8"/>
<rect x="200" y="30" width="8" height="8"/>
<rect x="210" y="30" width="8" height="8"/>
<rect x="180" y="40" width="8" height="8"/>
<rect x="180" y="50" width="8" height="8"/>
<rect x="180" y="60" width="8" height="8"/>
<rect x="240" y="0" width="8" height="8"/>
<rect x="250" y="0" width="8" height="8"/>
<rect x="260" y="0" width="8" height="8"/>
<rect x="270" y="0" width="8" height="8"/>
<rect x="240" y="10" width="8" height="8"/>
<rect x="280" y="10" width="8" height="8"/>
<rect x="240" y="20" width="8" height="8"/>
<rect x="280" y="20" width="8" height="8"/>
<rect x="240" y="30" width="8" height="8"/>
<rect x="250" y="30" width="8" height="8"/>
<rect x="260" y="30" width="8" height="8"/>
<rect x="270" y="30" width="8" height="8"/>
<rect x="240" y="40" width="8" height="8"/>
<rect x="260" y="40" width="8" height="8"/>
<rect x="240" y="50" width="8" height="8"/>
<rect x="270" y="50" width="8" height="8"/>
<rect x="240" y="60" width="8" height="8"/>
<rect x="280" y="60" width="8" height="8"/>
<rect x="300" y="0" width="8" height="8"/>
<rect x="310" y="0" width="8" height="8"/>
<rect x="320" y="0" width="8" height="8"/>
<rect x="330" y="0" width="8" height="8"/>
<rect x="340" y="0" width="8" height="8"/>
<rect x="300" y="10" width="8" height="8"/>
<rect x="300" y="20" width="8" height="8"/>
<rect x="300" y="30" width="8" height="8"/>
<rect x="310" y="30" width="8" height="8"/>
<rect x="320" y="30" width="8" height="8"/>
<rect x="330" y="30" width="8" height="8"/>
<rect x="340" y="40" width="8" height="8"/>
<rect x="340" y="50" width="8" height="8"/>
<rect x="300" y="60" width="8" height="8"/>
<rect x="310" y="60" width="8" height="8"/>
<rect x="320" y="60" width="8" height="8"/>
<rect x="330" y="60" width="8" height="8"/>
<rect x="360" y="0" width="8" height="8"/>
<rect x="400" y="0" width="8" height="8"/>
<rect x="360" y="10" width="8" height="8"/>
<rect x="400" y="10" width="8" height="8"/>
<rect x="360" y="20" width="8" height="8"/>
<rect x="400" y="20" width="8" height="8"/>
<rect x="360" y="30" width="8" height="8"/>
<rect x="370" y="30" width="8" height="8"/>
<rect x="380" y="30" width="8" height="8"/>
<rect x="390" y="30" width="8" height="8"/>
<rect x="400" y="30" width="8" height="8"/>
<rect x="360" y="40" width="8" height="8"/>
<rect x="400" y="40" width="8" height="8"/>
<rect x="360" y="50" width="8" height="8"/>
<rect x="400" y="50" width="8" height="8"/>
<rect x="360" y="60" width="8" height="8"/>
<rect x="400" y="60" width="8" height="8"/>
<rect x="420" y="0" width="8" height="8"/>
<rect x="430" y="0" width="8" height="8"/>
<rect x="440" y="0" width="8" height="8"/>
<rect x="450" y="0" width="8" height="8"/>
<rect x="420" y="10" width="8" height="8"/>
<rect x="460" y="10" width="8" height="8"/>
<rect x="420" y="20" width="8" height="8"/>
<rect x="460" y="20" width="8" height="8"/>
<rect x="420" y="30" width="8" height="8"/>
<rect x="430" y="30" width="8" height="8"/>
<rect x="440" y="30" width="8" height="8"/>
<rect x="450" y="30" width="8" height="8"/>
<rect x="420" y="40" width="8" height="8"/>
<rect x="440" y="40" width="8" height="8"/>
<rect x="420" y="50" width="8" height="8"/>
<rect x="450" y="50" width="8" height="8"/>
<rect x="420" y="60" width="8" height="8"/>
<rect x="460" y="60" width="8" height="8"/>
</g>
<path d="M0 69H470" stroke="#C2FE0B" stroke-opacity="0.35" stroke-width="1"/>
</svg>
